<?xml version="1.0" encoding="UTF-8"?>
<svg xmlns="http://www.w3.org/2000/svg" xmlns:xlink="http://www.w3.org/1999/xlink" width="576.29pt" height="497.74pt" viewBox="0 0 576.29 497.74" version="1.1">
<defs>
<clipPath id="clip1">
  <path d="M 0 0 L 576.289063 0 L 576.289063 497.738281 L 0 497.738281 Z M 0 0 "/>
</clipPath>
</defs>
<g id="surface1">
<g clip-path="url(#clip1)" clip-rule="nonzero">
<path style=" stroke:none;fill-rule:evenodd;fill:rgb(44.699097%,45.098877%,45.098877%);fill-opacity:1;" d="M 295.195313 497.570313 C 315.746094 497.785156 336.289063 496.664063 356.699219 494.21875 C 379.417969 491.519531 401.851563 486.800781 423.734375 480.109375 C 446.832031 473.128906 468.9375 463.210938 489.511719 450.601563 C 500.371094 443.90625 510.597656 436.230469 520.0625 427.667969 C 549.835938 400.808594 569.363281 366.441406 574.570313 327.160156 C 577.515625 304.820313 576.316406 282.128906 571.035156 260.222656 C 565.300781 235.976563 553.300781 213.496094 537 194.738281 C 521.671875 177.109375 503.203125 162.484375 482.53125 151.605469 C 485.027344 146.035156 487.6875 140.542969 490.511719 135.132813 L 482.890625 128.035156 C 477.765625 123.261719 472.246094 118.933594 466.394531 115.089844 C 461.199219 111.683594 455.890625 108.453125 450.476563 105.402344 C 442.609375 87.398438 432.410156 70.503906 420.140625 55.160156 C 405.824219 37.363281 387.710938 22.640625 366.648438 13.785156 C 358.167969 10.238281 349.375 7.492188 340.386719 5.582031 C 310.582031 -0.816406 288.058594 -0.675781 257.898438 1.460938 C 238.929688 2.804688 221.234375 8.441406 203.480469 14.492188 C 184.523438 20.773438 167.402344 31.628906 153.640625 46.101563 C 140.574219 59.84375 128.953125 74.886719 118.957031 90.996094 C 108.503906 107.800781 100.242188 125.871094 94.363281 144.773438 C 72.804688 157.355469 53.5625 172.890625 38.050781 192.289063 C 22.335938 212.011719 10.863281 234.773438 4.359375 259.140625 C 1.507813 269.824219 0.0898438 280.84375 0.144531 291.902344 C 0.160156 303.597656 1.164063 315.269531 3.148438 326.796875 C 5.246094 339.152344 9.207031 351.121094 14.894531 362.289063 C 21.023438 374.320313 28.640625 385.535156 37.5625 395.667969 C 53.890625 414.1875 72.929688 430.125 94.03125 442.941406 C 117.101563 456.964844 141.722656 468.269531 167.394531 476.625 C 208.640625 490.230469 251.761719 497.296875 295.195313 497.570313 "/>
</g>
<path style=" stroke:none;fill-rule:evenodd;fill:rgb(44.699097%,45.098877%,45.098877%);fill-opacity:1;" d="M 379.722656 94.628906 L 394.199219 98.789063 C 395.824219 99.171875 396.398438 98.78125 397.414063 97.675781 L 397.585938 96.507813 C 397.523438 96.214844 397.292969 95.347656 397.0625 94.9375 L 390.855469 85.984375 L 387.203125 81.007813 C 385.40625 78.363281 383.429688 75.84375 381.285156 73.472656 C 379.949219 71.980469 378.730469 70.386719 377.632813 68.710938 C 376.070313 66.257813 373.875 63.5 371.59375 61.667969 C 342.859375 38.601563 302.351563 36.410156 267.113281 38.636719 C 248.707031 39.769531 230.625 44.019531 213.644531 51.207031 C 204.503906 55.132813 197.269531 63.742188 191.347656 71.820313 C 181.070313 85.835938 178.894531 89.277344 172.519531 102.984375 C 190.691406 96.234375 204.789063 92.039063 223.640625 88.792969 C 274.902344 79.960938 329.347656 81.835938 379.722656 94.628906 "/>
<path style=" stroke:none;fill-rule:evenodd;fill:rgb(95.298767%,81.999207%,65.098572%);fill-opacity:1;" d="M 451.113281 182.835938 C 451.023438 183.214844 450.960938 183.601563 450.929688 183.992188 C 450.570313 188.214844 447.492188 190.390625 444.054688 191.941406 C 442.3125 191.082031 440.671875 190.035156 439.15625 188.820313 C 437.140625 187.191406 435.21875 185.449219 433.402344 183.605469 C 431.71875 181.898438 429.996094 180.226563 428.238281 178.59375 C 426.332031 176.808594 423.949219 174.929688 421.714844 173.574219 C 413.941406 168.863281 405.128906 166.171875 396.242188 164.496094 C 387.777344 162.902344 379.125 162.546875 370.722656 164.4375 C 367.152344 165.242188 363.042969 165.335938 360.054688 162.851563 C 359.277344 162.195313 358.546875 161.480469 357.871094 160.71875 C 357.164063 159.933594 356.574219 159.050781 356.113281 158.101563 C 355.363281 156.59375 355.457031 154.796875 356.359375 153.371094 L 357.257813 151.90625 C 357.558594 151.660156 357.851563 151.402344 358.132813 151.136719 C 358.269531 151.011719 358.386719 150.867188 358.480469 150.710938 C 358.507813 150.664063 358.535156 150.621094 358.558594 150.574219 L 359.425781 150.085938 L 360.445313 149.460938 L 360.867188 149.089844 L 361.203125 148.628906 C 361.28125 148.480469 361.398438 147.9375 361.40625 147.859375 C 361.503906 146.835938 360.824219 145.921875 359.808594 145.691406 C 341.128906 141.480469 320.320313 139.207031 300.726563 138.660156 C 278.226563 138.027344 256.957031 139.257813 234.9375 141.730469 C 233.8125 141.855469 232.800781 142.242188 232.0625 143.085938 C 231.371094 143.878906 231.222656 145.007813 231.683594 145.953125 C 231.949219 146.496094 232.351563 146.96875 232.847656 147.320313 C 233.429688 147.761719 233.945313 148.289063 234.371094 148.882813 C 234.867188 149.640625 235.277344 150.449219 235.605469 151.292969 C 235.929688 152.097656 236.152344 153.011719 235.796875 153.847656 C 234.382813 157.167969 231.207031 160.730469 227.332031 161.429688 C 225.851563 161.652344 224.347656 161.664063 222.867188 161.464844 C 221.023438 161.207031 219.1875 160.894531 217.359375 160.527344 C 213.703125 159.882813 209.984375 159.65625 206.277344 159.855469 C 194.121094 160.515625 181.742188 165.046875 171.332031 171.476563 C 163.296875 176.441406 156.390625 182.089844 149.722656 188.546875 C 148.578125 189.652344 146.007813 188.511719 144.816406 187.652344 C 142.632813 186.089844 141.160156 183.722656 140.71875 181.078125 C 140.269531 178.300781 141.164063 175.476563 143.136719 173.472656 C 143.605469 172.988281 143.917969 172.378906 144.039063 171.71875 L 144.046875 171.6875 C 144.21875 171.414063 144.328125 171.105469 144.371094 170.78125 C 144.464844 169.992188 144.101563 169.179688 143.425781 168.738281 L 142.945313 168.480469 C 142.042969 168.179688 141.0625 168.222656 140.183594 168.597656 L 139.835938 168.777344 C 133.890625 171.648438 128 174.636719 122.171875 177.742188 C 110.253906 184.105469 98.355469 191.683594 88.210938 200.65625 C 85.570313 202.996094 83.058594 205.480469 80.691406 208.09375 C 78.039063 211.003906 75.617188 214.109375 73.445313 217.390625 C 69.625 223.195313 66.457031 229.40625 64.003906 235.910156 C 61.296875 243.011719 59.300781 250.363281 58.042969 257.855469 C 56.789063 265.304688 56.15625 272.84375 56.152344 280.398438 C 56.144531 288.664063 56.800781 296.917969 58.109375 305.078125 L 58.113281 305.101563 C 61.320313 323.765625 68.816406 341.425781 80.011719 356.699219 C 85.902344 364.726563 92.601563 372.128906 100.003906 378.785156 C 108.0625 386.039063 116.714844 392.605469 125.863281 398.417969 C 137.910156 406.097656 151.214844 413.054688 164.519531 418.746094 C 179.464844 425.132813 194.796875 430.566406 210.425781 435.015625 C 227.0625 439.785156 244.050781 443.226563 261.230469 445.308594 C 280.148438 447.621094 299.226563 448.40625 318.269531 447.660156 C 347.308594 446.535156 376.328125 441.882813 404.152344 433.410156 C 421.34375 428.171875 438.390625 421.324219 454.273438 412.804688 C 489.371094 393.980469 519.84375 365.65625 529.667969 325.609375 C 533.683594 309.253906 533.9375 292.125 531.308594 275.527344 C 530.175781 268.300781 528.195313 261.234375 525.40625 254.472656 C 522.300781 246.972656 518.359375 239.851563 513.652344 233.238281 C 508.890625 226.523438 503.589844 220.210938 497.804688 214.355469 C 491.429688 207.910156 484.703125 201.828125 477.652344 196.132813 L 477.613281 196.101563 C 473.070313 192.574219 459.183594 182.574219 454.644531 180.851563 C 453.386719 180.375 452.066406 180.851563 451.445313 181.96875 L 451.464844 181.933594 C 451.304688 182.214844 451.1875 182.519531 451.113281 182.835938 "/>
<path style=" stroke:none;fill-rule:evenodd;fill:rgb(49.798584%,21.199036%,12.5%);fill-opacity:1;" d="M 472.554688 197.058594 C 478.996094 204.660156 483.703125 213.789063 487.390625 223.09375 C 493.007813 237.277344 496.3125 252.304688 496.800781 267.6875 C 497.820313 300.015625 489.539063 332.117188 468.390625 357.65625 C 425.878906 408.992188 354.101563 418.867188 291.128906 417.109375 C 227.660156 415.339844 157.316406 396.773438 118.046875 342.859375 C 98.96875 316.664063 89.816406 285.636719 91.765625 253.644531 C 92.730469 237.738281 98.265625 222.785156 105.929688 209.164063 C 111.976563 198.417969 119.042969 187.765625 128.203125 179.476563 C 137.265625 171.078125 138.121094 170.285156 138.121094 170.285156 C 138.121094 170.285156 137.902344 170.371094 135.253906 171.425781 C 128.339844 174.328125 121.960938 177.390625 116.089844 180.59375 C 73.160156 204.023438 56.113281 233.441406 55.730469 282.035156 C 55.480469 313.726563 65.140625 339.859375 81.421875 361.25 C 133.871094 419.820313 220.164063 447.875 303.582031 448.664063 C 372.960938 449.316406 463.003906 427.085938 508.929688 369.347656 C 556.308594 305.003906 532.890625 225.914063 465.289063 186.578125 C 464.015625 186.113281 463.644531 185.976563 463.644531 185.976563 L 467.988281 192 C 467.988281 192 466.113281 189.457031 472.554688 197.058594 "/>
<path style=" stroke:none;fill-rule:evenodd;fill:rgb(0%,0%,0%);fill-opacity:1;" d="M 295.3125 399.0625 C 315.828125 399.929688 336.664063 398.941406 356.414063 393.078125 C 377.554688 386.800781 396.210938 374.085938 413.210938 360.261719 C 416.460938 357.585938 420.613281 357.546875 421.425781 357.394531 C 430.203125 355.765625 439.035156 351.824219 444.585938 344.382813 C 450.609375 336.300781 447.449219 324.621094 441.484375 317.167969 C 440.808594 316.320313 439.890625 316.582031 440.046875 317.796875 C 442.082031 333.402344 425.964844 344.023438 412.414063 344.5625 C 410.691406 344.632813 408.707031 344.710938 407.332031 346.003906 C 371.183594 379.972656 318.960938 385.042969 272.164063 378.421875 C 248.015625 375.007813 224.714844 363.496094 204.621094 349.742188 C 198.785156 345.742188 192.71875 341.671875 187.203125 336.851563 C 182.394531 332.648438 176.023438 332.667969 170.539063 328.90625 C 159.277344 321.175781 161.128906 302.789063 173.382813 296.484375 C 174.628906 295.84375 174.816406 294.636719 173.441406 294.414063 C 159.570313 292.183594 147.226563 303.105469 145.195313 316.429688 C 143.089844 330.226563 156.890625 341.597656 168.285156 346.472656 C 170.027344 347.214844 171.929688 348.519531 173.484375 349.917969 C 206.8125 379.984375 250.699219 397.175781 295.3125 399.0625 "/>
<path style=" stroke:none;fill-rule:evenodd;fill:rgb(0%,0%,0%);fill-opacity:1;" d="M 303.527344 363.894531 C 323.226563 363.6875 343.035156 360.5625 361.21875 353.082031 C 371.28125 348.941406 381.183594 344.226563 389.929688 337.539063 C 398.5625 330.941406 408.953125 327.613281 418.136719 322.167969 C 419.871094 321.136719 419.613281 317.835938 418.9375 316.195313 C 417.703125 313.199219 415.125 309.339844 411.519531 308.574219 C 410.71875 308.40625 409.835938 308.425781 409.054688 308.542969 C 408.238281 308.664063 407.308594 308.761719 406.550781 309.183594 C 389.375 318.773438 369.621094 321.703125 350.484375 325.386719 C 332.386719 328.867188 313.773438 330.757813 295.324219 329.5625 C 276.695313 328.359375 258.210938 325.460938 240.046875 321.125 C 235.355469 320.007813 230.652344 318.917969 226.066406 317.484375 C 221.410156 316.027344 216.503906 315.171875 212.140625 313.03125 C 207.292969 310.652344 203.523438 306.359375 197.816406 305.496094 C 193.714844 304.878906 190.359375 307.769531 188.820313 311.433594 C 188.5 312.191406 185.375 319.144531 190.351563 321.925781 C 198.355469 328.203125 208.652344 330.957031 217.050781 336.828125 C 226.058594 343.125 235.800781 348.242188 245.832031 352.609375 C 263.898438 360.472656 283.78125 364.101563 303.527344 363.894531 "/>
<path style=" stroke:none;fill-rule:evenodd;fill:rgb(0%,0%,0%);fill-opacity:1;" d="M 298.589844 317.761719 C 315.085938 318.578125 332.488281 310.117188 339.589844 295.027344 C 346.679688 279.960938 342.253906 259.09375 325.765625 252.5625 C 325 252.261719 324.128906 252.371094 323.855469 252.878906 C 323.605469 253.339844 324.882813 253.929688 325.171875 254.539063 C 329.597656 263.875 331.914063 275.65625 327.652344 285.851563 C 323.171875 296.574219 310.507813 301.023438 299.332031 301.167969 C 287.691406 301.3125 275.886719 293.304688 272.605469 281.710938 C 271.132813 276.503906 272.097656 271.039063 273.503906 266.074219 C 274.878906 261.222656 278.21875 255.816406 274.59375 251.273438 C 273.976563 250.5 273.0625 250.238281 272.207031 250.34375 C 271.664063 250.40625 271.148438 249.96875 270.578125 250.191406 C 254.046875 256.722656 251.324219 277.804688 257.351563 292.539063 C 260.832031 301.046875 267.945313 308.5625 276.351563 312.757813 C 283.179688 316.164063 290.953125 317.382813 298.589844 317.761719 "/>
<path style=" stroke:none;fill-rule:evenodd;fill:rgb(100%,100%,100%);fill-opacity:1;" d="M 429.085938 242.992188 C 430.601563 235.214844 430.523438 227.210938 428.855469 219.464844 L 428.832031 219.363281 C 423.992188 201.484375 408.746094 188.359375 390.347656 186.230469 C 382.621094 185.242188 373.332031 186.609375 366.695313 191.011719 C 353.5625 199.722656 348.324219 218.773438 350.027344 233.664063 C 351.0625 242.714844 353.078125 250.234375 356.355469 258.777344 L 366.886719 258.070313 C 370.910156 257.925781 372.613281 257.214844 376.042969 256.128906 C 371.015625 251.207031 367.964844 247.515625 366.535156 240.769531 C 364.253906 230 366.546875 217.910156 374.390625 209.804688 C 381.894531 202.054688 394.859375 201.578125 402.203125 209.769531 C 414.316406 223.332031 413.734375 243.992188 400.882813 256.855469 L 398.390625 259.34375 L 423.753906 265.609375 C 425.855469 258.152344 427.636719 250.605469 429.085938 242.992188 "/>
<path style=" stroke:none;fill-rule:evenodd;fill:rgb(100%,100%,100%);fill-opacity:1;" d="M 188.667969 236.46875 C 187.152344 229.476563 187.5625 222.203125 189.847656 215.421875 C 192.042969 209.082031 196.921875 204.035156 203.179688 201.621094 C 218.800781 195.398438 230.453125 210.707031 232.429688 224.234375 C 233.371094 230.554688 232.632813 237.011719 230.296875 242.957031 L 227.777344 247.726563 L 225.722656 250.382813 L 225.269531 251.117188 L 224.945313 252.1875 C 224.6875 253.59375 226.140625 254.796875 227.265625 255.015625 L 231.652344 255.34375 C 233.507813 255.378906 235.351563 255.65625 237.132813 256.164063 C 241.144531 257.40625 243.160156 254.660156 244.1875 251.242188 C 245.511719 247.046875 246.609375 242.777344 247.46875 238.457031 C 250.851563 224.046875 248.167969 208.875 240.046875 196.496094 C 236.09375 190.570313 230.167969 186.234375 223.320313 184.261719 C 207.632813 179.605469 191.71875 184.109375 180.304688 195.664063 C 162.03125 214.164063 168.675781 238.839844 174.777344 260.597656 L 200.371094 255.308594 C 194.296875 249.359375 190.496094 244.644531 188.667969 236.46875 "/>
<path style=" stroke:none;fill-rule:evenodd;fill:rgb(0%,0%,0%);fill-opacity:1;" d="M 440.425781 281.992188 C 441.53125 282.523438 442.789063 282.140625 442.15625 280.96875 C 439.902344 276.78125 438.570313 273.078125 436.28125 269.160156 C 435.4375 267.714844 435.980469 265.992188 436.375 264.492188 C 441.257813 245.882813 445.886719 224.558594 436.429688 206.507813 C 426.253906 187.078125 406.230469 174.890625 384.21875 174.683594 C 361.914063 174.476563 343.253906 192.621094 339.253906 214.097656 C 335.578125 233.816406 340.421875 254.03125 350.050781 271.480469 C 380.492188 267.066406 412.355469 268.550781 440.425781 281.992188 Z M 422.355469 263.21875 C 425.890625 249.394531 430.414063 234.183594 426.910156 219.882813 C 422.816406 203.171875 407.09375 189.78125 390.097656 188.203125 C 382.46875 187.492188 374.304688 188.339844 367.796875 192.671875 C 360.90625 197.257813 356.730469 204.691406 354.078125 212.464844 C 349.175781 226.84375 352.632813 242.941406 357.6875 256.695313 C 360.097656 256.542969 361.527344 256.679688 363.722656 256.316406 C 366.714844 255.824219 368.132813 256.484375 372.285156 255.234375 C 355.820313 239.769531 363.769531 201.597656 389.179688 201.824219 C 402.164063 201.941406 409.902344 214.414063 412.25 225.707031 C 414.59375 236.992188 410.78125 250.324219 402.289063 258.261719 C 409.914063 260.089844 414.796875 261.207031 422.355469 263.21875 Z M 196.3125 254.117188 C 185.664063 243.675781 183.484375 228.476563 187.964844 214.777344 C 192.648438 200.453125 211.675781 192.296875 223.476563 203.347656 C 229.835938 209.300781 233.105469 215.792969 234.398438 223.964844 C 235.496094 230.878906 234.621094 237.410156 232.105469 243.792969 C 231.773438 244.636719 231.28125 245.382813 230.96875 246.136719 C 230.613281 247.003906 229.753906 248.148438 229.453125 248.804688 C 228.882813 250.070313 225.46875 252.765625 227.648438 253.050781 C 231.3125 253.527344 233.921875 253.117188 237.726563 254.265625 C 241.570313 255.425781 242.0625 251.035156 243.128906 247.882813 C 244.207031 244.671875 244.761719 241.40625 245.527344 238.035156 C 248.683594 224.128906 246.339844 209.648438 238.386719 197.589844 C 230.386719 185.464844 213.949219 182.15625 200.511719 185.859375 C 185.832031 189.90625 173.039063 202.867188 170.9375 218.25 C 169.089844 231.757813 172.8125 245.292969 176.191406 258.277344 C 183.5 256.617188 188.902344 255.609375 196.3125 254.117188 Z M 202.183594 265.957031 C 217.789063 264.550781 233.050781 266.859375 248.695313 269.226563 C 258.734375 250.953125 264.234375 228.054688 257.890625 207.546875 C 254.164063 195.507813 246.972656 184.261719 236.03125 177.789063 C 226.847656 172.355469 215.972656 170.824219 205.457031 171.730469 C 182.46875 173.714844 161.53125 192.109375 157.34375 214.945313 C 155.488281 225.054688 157.265625 235.277344 158.265625 245.410156 C 158.808594 250.867188 160.664063 256.109375 163.121094 261.089844 C 164.414063 263.714844 161.273438 266.160156 160.164063 268.660156 C 158.976563 271.34375 156.339844 273.8125 155.933594 276.769531 C 170.980469 271.488281 186.242188 267.390625 202.183594 265.957031 "/>
<path style=" stroke:none;fill-rule:evenodd;fill:rgb(80.799866%,7.798767%,27.49939%);fill-opacity:1;" d="M 274.039063 82.785156 L 274.039063 67.878906 L 275.980469 66.078125 L 277.203125 64.941406 L 294.253906 64.941406 L 295.851563 66.449219 L 297.355469 67.867188 L 297.355469 82.785156 L 314.386719 82.785156 L 314.386719 61.070313 L 300.566406 48.042969 L 270.957031 48.042969 L 257.140625 60.875 L 257.140625 82.785156 L 274.039063 82.785156 "/>
<path style=" stroke:none;fill-rule:evenodd;fill:rgb(0%,0%,0%);fill-opacity:1;" d="M 456.667969 184.027344 C 456.121094 183.734375 455.566406 183.453125 455.003906 183.179688 C 453.492188 182.441406 453.105469 182.257813 452.910156 184.160156 C 452.726563 185.945313 452.199219 187.425781 451.402344 188.679688 C 445.402344 196.75 442.605469 194.347656 436.769531 189.441406 C 431.335938 184.878906 426.839844 179.007813 420.6875 175.277344 C 413.074219 170.65625 404.554688 168.105469 395.875 166.449219 C 387.722656 164.898438 379.265625 164.550781 371.148438 166.378906 C 366.894531 167.339844 362.140625 167.253906 358.785156 164.382813 C 355.199219 161.3125 351.804688 156.964844 354.695313 152.285156 C 355.128906 151.585938 355.390625 151.167969 355.675781 150.6875 C 355.894531 150.3125 357.386719 149.4375 356.589844 149.542969 C 355.789063 149.648438 359.90625 147.75 359.382813 147.632813 C 319.039063 138.675781 276.238281 139.058594 235.160156 143.707031 C 233.851563 143.855469 232.644531 144.644531 234.019531 145.714844 C 236.054688 147.296875 236.648438 148.691406 237.460938 150.578125 C 238.027344 151.902344 238.164063 153.421875 237.621094 154.632813 C 235.820313 158.675781 232.214844 162.613281 227.675781 163.390625 C 224.121094 163.996094 220.554688 163.121094 216.992188 162.480469 C 209.558594 161.148438 202.078125 161.804688 194.742188 163.628906 C 177.902344 167.816406 163.554688 177.917969 151.105469 189.972656 C 149.191406 191.828125 145.84375 190.820313 143.648438 189.261719 C 138.226563 185.410156 136.597656 177.390625 141.71875 172.074219 C 142.175781 171.605469 142.027344 171.046875 142.34375 170.65625 C 142.65625 170.265625 141.535156 170.128906 141.011719 170.402344 C 140.917969 170.453125 140.824219 170.507813 140.726563 170.558594 C 122.328125 179.5625 90.496094 195.070313 75.101563 218.488281 C 59.933594 241.5625 54.980469 272.761719 60.074219 304.765625 C 66.929688 343.894531 90.679688 373.460938 126.933594 396.738281 C 152.996094 413.476563 183.0625 425.054688 210.972656 433.105469 C 282.628906 453.777344 366.960938 449.515625 434.703125 420.066406 C 492.878906 394.78125 540.789063 349.320313 529.34375 275.839844 C 524.183594 242.691406 501.328125 218.027344 476.402344 197.679688 C 470.105469 192.832031 463.488281 188.292969 456.667969 184.027344 Z M 295.3125 483.644531 C 337.320313 484 379.800781 479.140625 419.6875 466.789063 C 465.09375 452.726563 509.214844 427.820313 536.664063 387.847656 C 549.625 368.976563 557.675781 347.890625 560.777344 325.304688 C 563.628906 304.542969 562.144531 283.730469 557.492188 263.414063 C 546.753906 216.554688 509.089844 178.347656 465.921875 158.996094 C 464.957031 158.566406 464.527344 157.382813 465.027344 156.402344 C 468.125 150.355469 470.148438 144.558594 473.402344 138.214844 C 463.839844 129.167969 452.398438 122.464844 441.027344 116.070313 C 440.179688 115.589844 439.167969 115.234375 438.707031 114.417969 C 438.441406 113.949219 438.582031 112.957031 438.367188 112.457031 C 423.265625 77.523438 397.828125 41.867188 361.226563 26.59375 C 344.945313 19.800781 327.597656 16.710938 310.105469 14.980469 C 293.121094 13.296875 275.964844 14.273438 258.878906 15.339844 C 241.308594 16.4375 224.578125 22.085938 207.96875 27.660156 C 191.234375 33.277344 175.964844 42.707031 163.722656 55.6875 C 137.5 83.488281 117.101563 115.992188 106.5625 152.511719 C 106.136719 153.988281 104.683594 154.886719 103.363281 155.640625 C 82.941406 167.34375 63.679688 182.394531 48.902344 200.996094 C 34.433594 219.210938 23.863281 240.464844 17.792969 262.773438 C 12.386719 282.648438 13.554688 304.15625 16.867188 324.445313 C 20.621094 347.445313 32.46875 368.609375 48.007813 386.464844 C 80.574219 423.878906 125.519531 447.945313 171.726563 463.390625 C 211.191406 476.582031 253.363281 483.292969 295.3125 483.644531 Z M 223.308594 86.832031 C 207.320313 89.625 191.574219 93.71875 176.363281 99.4375 C 180.621094 90.066406 186.808594 81.257813 192.953125 72.992188 C 198.777344 65.164063 205.402344 56.875 214.417969 53.039063 C 231.015625 45.976563 249.328125 41.679688 267.238281 40.617188 C 302.65625 38.519531 341.359375 40.410156 370.367188 63.234375 C 374.371094 66.386719 376.382813 71.175781 379.804688 74.800781 C 383.363281 78.570313 386.0625 83.113281 389.238281 87.136719 C 390.875 89.210938 392.34375 91.644531 393.753906 93.664063 C 394.4375 94.644531 395.792969 96.230469 395.535156 96.785156 C 395.308594 97.269531 393.578125 96.457031 392.527344 96.148438 C 388.5625 94.984375 384.378906 93.78125 380.242188 92.707031 C 371.078125 90.335938 304.746094 72.566406 223.308594 86.832031 "/>
<path style=" stroke:none;fill-rule:evenodd;fill:rgb(80.799866%,7.798767%,27.49939%);fill-opacity:1;" d="M 147.097656 132.683594 L 157.257813 149.914063 C 176.421875 139.484375 195.144531 132.8125 211.222656 128.542969 C 260.429688 115.671875 322.066406 117.882813 359.304688 128.871094 C 401.371094 139.976563 429.335938 157.28125 429.476563 157.34375 C 429.660156 157.425781 429.660156 157.425781 429.660156 157.425781 C 429.660156 157.425781 436.792969 140.566406 436.871094 140.382813 C 436.917969 140.273438 417.058594 127.851563 384.402344 117.085938 C 326.339844 97.945313 263.460938 97.203125 204.347656 112.257813 C 186.621094 116.773438 166.898438 123.285156 147.167969 132.65625 C 147.097656 132.683594 147.097656 132.683594 147.097656 132.683594 "/>
</g>
</svg>
